<svg xmlns="http://www.w3.org/2000/svg" viewBox="0 0 320 130" role="img">
<line x1="46" y1="10" x2="46" y2="108" class="pa-guide"/>
<text x="46" y="122" class="pa-label-muted" text-anchor="middle">8</text>
<line x1="69.45" y1="10" x2="69.45" y2="108" class="pa-guide"/>
<text x="69.45" y="122" class="pa-label-muted" text-anchor="middle">10</text>
<line x1="92.91" y1="10" x2="92.91" y2="108" class="pa-guide"/>
<text x="92.91" y="122" class="pa-label-muted" text-anchor="middle">12</text>
<line x1="116.36" y1="10" x2="116.36" y2="108" class="pa-guide"/>
<text x="116.36" y="122" class="pa-label-muted" text-anchor="middle">14</text>
<line x1="139.82" y1="10" x2="139.82" y2="108" class="pa-guide"/>
<text x="139.82" y="122" class="pa-label-muted" text-anchor="middle">16</text>
<line x1="163.27" y1="10" x2="163.27" y2="108" class="pa-guide"/>
<text x="163.27" y="122" class="pa-label-muted" text-anchor="middle">18</text>
<line x1="186.73" y1="10" x2="186.73" y2="108" class="pa-guide"/>
<text x="186.73" y="122" class="pa-label-muted" text-anchor="middle">20</text>
<line x1="210.18" y1="10" x2="210.18" y2="108" class="pa-guide"/>
<text x="210.18" y="122" class="pa-label-muted" text-anchor="middle">22</text>
<line x1="233.64" y1="10" x2="233.64" y2="108" class="pa-guide"/>
<text x="233.64" y="122" class="pa-label-muted" text-anchor="middle">24</text>
<line x1="257.09" y1="10" x2="257.09" y2="108" class="pa-guide"/>
<text x="257.09" y="122" class="pa-label-muted" text-anchor="middle">26</text>
<line x1="280.55" y1="10" x2="280.55" y2="108" class="pa-guide"/>
<text x="280.55" y="122" class="pa-label-muted" text-anchor="middle">28</text>
<line x1="304" y1="10" x2="304" y2="108" class="pa-guide"/>
<text x="304" y="122" class="pa-label-muted" text-anchor="middle">30</text>
<line x1="92.91" y1="27" x2="128.09" y2="27" class="pa-figure-line"/>
<line x1="198.45" y1="27" x2="245.36" y2="27" class="pa-figure-line"/>
<line x1="92.91" y1="16" x2="92.91" y2="38" class="pa-figure-line"/>
<line x1="245.36" y1="16" x2="245.36" y2="38" class="pa-figure-line"/>
<rect x="128.09" y="16" width="70.36" height="22" class="pa-figure-fill"/>
<line x1="157.41" y1="16" x2="157.41" y2="38" class="pa-axis-highlight"/>
<text x="36" y="31" class="pa-label" text-anchor="end">A組</text>
<line x1="69.45" y1="67" x2="116.36" y2="67" class="pa-figure-line"/>
<line x1="233.64" y1="67" x2="280.55" y2="67" class="pa-figure-line"/>
<line x1="69.45" y1="56" x2="69.45" y2="78" class="pa-figure-line"/>
<line x1="280.55" y1="56" x2="280.55" y2="78" class="pa-figure-line"/>
<rect x="116.36" y="56" width="117.27" height="22" class="pa-figure-fill"/>
<line x1="163.27" y1="56" x2="163.27" y2="78" class="pa-axis-highlight"/>
<text x="36" y="71" class="pa-label" text-anchor="end">B組</text>
</svg>
