<svg xmlns="http://www.w3.org/2000/svg" viewBox="0 0 220 160" role="img">
<defs>
  <marker id="pa-arrow" viewBox="0 0 10 10" refX="8" refY="5" markerWidth="6" markerHeight="6" orient="auto-start-reverse">
    <path d="M0,0 L10,5 L0,10 z" class="pa-axis-fill"/>
  </marker>
</defs>
<line x1="15" y1="100" x2="185" y2="100" class="pa-axis" marker-end="url(#pa-arrow)"/>
<text x="178" y="94" class="pa-label">x</text>
<text x="92" y="116" class="pa-label-muted">O</text>
<line x1="30.7" y1="140.0" x2="169.3" y2="60.0" class="pa-figure-line"/>
<line x1="169.3" y1="140.0" x2="30.7" y2="60.0" class="pa-figure-line"/>
<path d="M122.0,100.0 A22,22 0 0 0 119.05,89.0" class="pa-figure-line"/>
<path d="M154.0,100.0 A54,54 0 0 0 53.23,73.0" class="pa-figure-line"/>
<text x="137" y="96" class="pa-label">30°</text>
<text x="115.5" y="42.0" class="pa-label">150°</text>
<text x="145" y="40.0" class="pa-label" style="text-anchor:start">傾き </text>
<text x="179.6" y="34.0" class="pa-label" text-anchor="middle" font-size="9">1</text><line x1="171.0" y1="37" x2="188.2" y2="37" class="pa-figure-line" stroke-width="1"/><text x="179.6" y="47.0" class="pa-label" text-anchor="middle" font-size="9">√3</text>
<text x="22" y="40.0" class="pa-label" style="text-anchor:start">傾き −</text>
<text x="70.7" y="34.0" class="pa-label" text-anchor="middle" font-size="9">1</text><line x1="62.1" y1="37" x2="79.3" y2="37" class="pa-figure-line" stroke-width="1"/><text x="70.7" y="47.0" class="pa-label" text-anchor="middle" font-size="9">√3</text>
</svg>
